<?xml version="1.0" encoding="UTF-8"?>
<svg id="Capa_2" data-name="Capa 2" xmlns="http://www.w3.org/2000/svg" viewBox="0 0 115 115">
  <defs>
    <style>
      .cls-1 {
        fill: #4dd8c0;
      }

      .cls-2 {
        fill: #276c60;
      }

      .cls-3 {
        fill: #dbf7f2;
      }
    </style>
  </defs>
  <g id="Capa_2-2" data-name="Capa 2">
    <g>
      <rect class="cls-1" width="115" height="115"/>
      <path class="cls-3" d="M101,72.84c-1.5-3.4-4.13-8.37-8.67-13.3-11.2-12.17-28.48-18.06-44.74-15.92-4.63.61-13.03,2.37-22.17,8.46,2.11,3.31,14.13,21.52,37.89,26.2,18.53,3.65,33.13-3.11,37.69-5.44Z"/>
      <path class="cls-2" d="M101,72.84c-1.84-4.39-5.37-11.24-11.97-17.66-9.47-9.2-19.74-12.17-24.78-13.63-27.13-7.83-53.12,5.26-59.25,8.53,6.81.67,13.62,1.34,20.42,2,1.62-.87,7.19-3.79,15.19-5.53,14.91-3.26,26.89.51,29.75,1.45,18.61,6.14,28.04,20.54,30.63,24.84Z"/>
      <rect class="cls-1" x="71.74" y="63.56" width="11.61" height="11.61"/>
      <rect class="cls-1" x="65.94" y="57.76" width="11.61" height="11.61"/>
      <path class="cls-2" d="M25.38,52.04c-3.75.81-9.28,2.51-9.98,5.87-1.28,6.17,14.61,13.68,16.69,14.64,5.49,2.54,15.14,5.9,28.76,5.19-7.12-2.69-16.74-7.39-26.08-15.75-3.76-3.37-6.86-6.78-9.39-9.95Z"/>
      <polygon class="cls-2" points="21 8 15 8 15 2 9 2 9 8 3 8 3 14 9 14 9 20 15 20 15 14 21 14 21 8"/>
      <polygon class="cls-2" points="21 99 15 99 15 93 9 93 9 99 3 99 3 105 9 105 9 111 15 111 15 105 21 105 21 99"/>
      <polygon class="cls-2" points="110 99 104 99 104 93 98 93 98 99 92 99 92 105 98 105 98 111 104 111 104 105 110 105 110 99"/>
      <polygon class="cls-2" points="110 8 104 8 104 2 98 2 98 8 92 8 92 14 98 14 98 20 104 20 104 14 110 14 110 8"/>
    </g>
  </g>
</svg>