<?xml version="1.0" encoding="UTF-8"?>
<svg id="Capa_1" xmlns="http://www.w3.org/2000/svg" version="1.1" viewBox="0 0 48 48">
  <!-- Generator: Adobe Illustrator 29.0.0, SVG Export Plug-In . SVG Version: 2.1.0 Build 186)  -->
  <defs>
    <style>
      .st0 {
        fill: #e9d2eb;
      }

      .st1 {
        fill: #a010af;
      }

      .st2 {
        fill: #d516e9;
      }

      .st3 {
        fill: #f7d0fb;
      }

      .st4 {
        fill: #d3a5d8;
      }
    </style>
  </defs>
  <rect class="st0" x="0" width="48" height="48"/>
  <rect class="st2" x="0" y="9.1" width="31.2" height="15.2"/>
  <path class="st2" d="M7.3,25.1c-1.2,1.3-1.2,3.3,0,4.6s3.3,1.3,4.6,0h0s10.1-10.1,10.1-10.1l-4.7-4.7-10.1,10.1h0Z"/>
  <path class="st2" d="M14.4,29.6c-1.2,1.3-1.2,3.3,0,4.6s3.3,1.3,4.6,0h0s10.1-10.1,10.1-10.1l-4.7-4.7-10.1,10.1h0Z"/>
  <path class="st2" d="M22.6,33.4c-1.2,1.3-1.2,3.3,0,4.6s3.3,1.3,4.6,0h0s10.1-10.1,10.1-10.1l-4.7-4.7-10.1,10.1h0Z"/>
  <path class="st2" d="M47.1,18.2c1.2-1.3,1.2-3.3,0-4.6s-3.3-1.3-4.6,0h0s-10.1,10.1-10.1,10.1l4.7,4.7,10.1-10.1h0Z"/>
  <path class="st3" d="M38.4,27.6c-.5-1.2-1.4-2.9-3-4.6-3.8-4.2-9.8-6.2-15.3-5.5-1.6.2-4.5.8-7.6,2.9.7,1.1,4.8,7.4,13,9,6.3,1.2,11.3-1.1,12.9-1.9Z"/>
  <path class="st1" d="M38.4,27.6c-.6-1.5-1.8-3.8-4.1-6-3.2-3.2-6.8-4.2-8.5-4.7-9.3-2.7-18.2,1.8-20.3,2.9,2.3.2,4.7.5,7,.7.6-.3,2.5-1.3,5.2-1.9,5.1-1.1,9.2.2,10.2.5,6.4,2.1,9.6,7,10.5,8.5Z"/>
  <rect class="st2" x="28.4" y="24.4" width="4" height="4"/>
  <rect class="st2" x="26.4" y="22.4" width="4" height="4"/>
  <polygon class="st2" points="38.6 12.4 36.6 12.4 36.6 10.4 34.9 10.4 34.9 12.4 32.9 12.4 32.9 14.1 34.9 14.1 34.9 16.1 36.6 16.1 36.6 14.1 38.6 14.1 38.6 12.4"/>
  <polygon class="st4" points="47.4 2.9 45.3 2.9 45.3 .9 43.7 .9 43.7 2.9 41.6 2.9 41.6 4.6 43.7 4.6 43.7 6.6 45.3 6.6 45.3 4.6 47.4 4.6 47.4 2.9"/>
  <polygon class="st2" points="6.4 43.6 4.3 43.6 4.3 41.5 2.7 41.5 2.7 43.6 .6 43.6 .6 45.2 2.7 45.2 2.7 47.3 4.3 47.3 4.3 45.2 6.4 45.2 6.4 43.6"/>
  <polygon class="st2" points="47.4 43.6 45.3 43.6 45.3 41.5 43.7 41.5 43.7 43.6 41.6 43.6 41.6 45.2 43.7 45.2 43.7 47.3 45.3 47.3 45.3 45.2 47.4 45.2 47.4 43.6"/>
  <polygon class="st2" points="6.4 2.9 4.3 2.9 4.3 .9 2.7 .9 2.7 2.9 .6 2.9 .6 4.6 2.7 4.6 2.7 6.6 4.3 6.6 4.3 4.6 6.4 4.6 6.4 2.9"/>
  <path class="st1" d="M12.5,20.4c-1.3.3-3.2.9-3.4,2-.4,2.1,5,4.7,5.7,5,1.9.9,5.2,2,9.8,1.8-2.4-.9-5.7-2.5-8.9-5.4-1.3-1.2-2.3-2.3-3.2-3.4Z"/>
</svg>